<svg width="24" height="24" viewBox="0 0 24 24" fill="none" xmlns="http://www.w3.org/2000/svg">
<path fill-rule="evenodd" clip-rule="evenodd" d="M7.26012 5.36139C7.08129 5.18866 6.84177 5.09309 6.59315 5.09525C6.34454 5.09741 6.10672 5.19713 5.93091 5.37294C5.7551 5.54874 5.65538 5.78657 5.65322 6.03518C5.65106 6.2838 5.74664 6.52332 5.91936 6.70215L10.9382 11.721L5.91936 16.7399C5.8288 16.8273 5.75656 16.932 5.70686 17.0477C5.65717 17.1633 5.63101 17.2878 5.62992 17.4137C5.62882 17.5396 5.65282 17.6644 5.70049 17.781C5.74817 17.8975 5.81858 18.0034 5.90761 18.0924C5.99664 18.1814 6.10251 18.2518 6.21904 18.2995C6.33557 18.3472 6.46043 18.3712 6.58633 18.3701C6.71223 18.369 6.83666 18.3428 6.95234 18.2931C7.06803 18.2434 7.17265 18.1712 7.26012 18.0806L12.279 13.0618L17.2978 18.0806C17.4767 18.2534 17.7162 18.3489 17.9648 18.3468C18.2134 18.3446 18.4513 18.2449 18.6271 18.0691C18.8029 17.8933 18.9026 17.6555 18.9047 17.4068C18.9069 17.1582 18.8113 16.9187 18.6386 16.7399L13.6197 11.721L18.6386 6.70215C18.8113 6.52332 18.9069 6.2838 18.9047 6.03518C18.9026 5.78657 18.8029 5.54874 18.6271 5.37294C18.4513 5.19713 18.2134 5.09741 17.9648 5.09525C17.7162 5.09309 17.4767 5.18866 17.2978 5.36139L12.279 10.3802L7.26012 5.36139Z" fill="#1A0710" fill-opacity="0.85"/>
</svg>
